PathFileType	4	(X/Y/Z)	./resultDataOpenSim/trcMotMarkerGrf/sub09/qtm-15-03.trc
DataRate	CameraRate	NumFrames	NumMarkers	Units	OrigDataRate	OrigDataStartFrame	OrigNumFrames
250.000000	250.000000	14	24	m	250.000000	371	494
Frame#	Time	L.Toe.Tip			R.Toe.Tip			L.Ankle.Lat			R.Ankle.Lat			L.Ankle.Med			R.Ankle.Med			L.Heel			R.Heel			L.Knee.Lat			R.Knee.Lat			L.Knee.Med			R.Knee.Med			L.Thigh.Upper			R.Thigh.Upper			L.ASIS			R.ASIS			V.Sacral			L.Acromium			R.Acromium			C7			L.Elbow			R.Elbow			L.Wrist.Lat			R.Wrist.Lat
		X1	Y1	Z1	X2	Y2	Z2	X3	Y3	Z3	X4	Y4	Z4	X5	Y5	Z5	X6	Y6	Z6	X7	Y7	Z7	X8	Y8	Z8	X9	Y9	Z9	X10	Y10	Z10	X11	Y11	Z11	X12	Y12	Z12	X13	Y13	Z13	X14	Y14	Z14	X15	Y15	Z15	X16	Y16	Z16	X17	Y17	Z17	X18	Y18	Z18	X19	Y19	Z19	X20	Y20	Z20	X21	Y21	Z21	X22	Y22	Z22	X23	Y23	Z23	X24	Y24	Z24

371	1.48	0.91124413	0.12754264	-0.13529398	1.0355166	0.038476892	-0.016339395	0.83181646	0.25709946	-0.16658274	0.89294156	0.06333041	0.028427283	0.8619219	0.25129018	-0.072242316	0.90641583	0.1087195	-0.060239608	0.75252166	0.27526093	-0.11685045	0.81907633	0.051454486	-0.017076094	1.1373515	0.52078712	-0.19885878	1.0406017	0.49468492	0.094144414	1.1506015	0.51064512	-0.074074165	1.017825	0.48954269	-0.029853741	0.94786086	0.88734409	-0.20174551	0.96395676	0.89610573	0.17032168	1.0260551	0.97188116	-0.1442201	1.0455791	0.97874973	0.091771501	0.86966431	1.0380362	-0.01695615	1.0576679	1.415694	-0.20919038	1.0538467	1.4457186	0.11874554	0.99215555	1.4830056	-0.046626856	0.89535085	1.0794666	-0.24592982	0.8705565	1.1453828	0.23878779	1.0363347	0.85545544	-0.28598616	0.99426152	0.90514522	0.3002563
372	1.484	0.92865526	0.12495079	-0.13587612	1.0356258	0.038487006	-0.016293172	0.8456664	0.25206814	-0.16728328	0.89327299	0.063882145	0.02843424	0.87606979	0.24695494	-0.072994536	0.90689961	0.10936307	-0.059988287	0.76569907	0.26805968	-0.1176495	0.81941128	0.05216357	-0.017056766	1.1452211	0.52312535	-0.19858708	1.0420747	0.49509241	0.094171234	1.1581301	0.51334055	-0.073972369	1.0194111	0.48984727	-0.02985071	0.95325187	0.88879067	-0.20240875	0.96846122	0.89714674	0.16983076	1.0312622	0.97345894	-0.14456013	1.0503914	0.97994254	0.091486378	0.87455627	1.0391152	-0.017394069	1.0617436	1.4172089	-0.20933556	1.0581951	1.4469898	0.11863824	0.99638201	1.484319	-0.046628888	0.89931282	1.0812038	-0.24611356	0.87564192	1.1460003	0.2386597	1.0388817	0.85656937	-0.28695402	1.0008358	0.90625354	0.29897984
373	1.488	0.94622949	0.12230613	-0.13651614	1.035808	0.038511521	-0.016290045	0.85962644	0.2469123	-0.16794087	0.89359539	0.064431771	0.028428185	0.89013525	0.24249021	-0.073676612	0.9072272	0.1099567	-0.059804787	0.77910528	0.26072047	-0.11845143	0.81964595	0.052931965	-0.017125535	1.1531241	0.52524857	-0.19825381	1.0435018	0.49548783	0.094134003	1.1660028	0.5158951	-0.073787993	1.0209607	0.49015456	-0.029853773	0.95874561	0.8901564	-0.2030226	0.97295245	0.89814911	0.16933636	1.0364769	0.97495832	-0.14487428	1.0552056	0.98110004	0.091195055	0.87949772	1.0401549	-0.017837432	1.0658221	1.4186716	-0.20947076	1.0625574	1.4482285	0.1185335	1.000594	1.4855748	-0.046623029	0.9033092	1.082857	-0.24634764	0.88071669	1.1465536	0.23852515	1.0414742	0.85765283	-0.28792094	1.0073991	0.90731018	0.29772453
374	1.492	0.96386977	0.11960932	-0.13723881	1.0360297	0.038505263	-0.016328524	0.87369148	0.24164318	-0.16855051	0.89388953	0.064978557	0.028417099	0.90419789	0.23790473	-0.074304575	0.90726237	0.11045951	-0.059777913	0.79269054	0.25323367	-0.11920312	0.8198099	0.053733651	-0.017250863	1.1610693	0.52717339	-0.19786706	1.0449284	0.49582545	0.094132716	1.173957	0.51831247	-0.073569221	1.0224433	0.49049973	-0.029870259	0.96425448	0.89144049	-0.20360945	0.97742139	0.89910835	0.16883705	1.0417106	0.9763825	-0.14518442	1.0600355	0.98221761	0.090896974	0.8845356	1.0411173	-0.018341423	1.0698948	1.4200791	-0.20959309	1.0669386	1.4494476	0.11843454	1.0048077	1.4867796	-0.046602776	0.90737487	1.084426	-0.24664134	0.88578619	1.1470462	0.23838274	1.0441083	0.85870681	-0.28889172	1.0139526	0.90830913	0.29647912
375	1.496	0.98148334	0.11689151	-0.13802924	1.0362202	0.038455041	-0.016374993	0.88787208	0.23627978	-0.16911247	0.89414479	0.065522335	0.028410117	0.91830328	0.23321607	-0.074874127	0.9071797	0.11091358	-0.059888161	0.80648251	0.24560101	-0.11992423	0.819962	0.054554466	-0.017373422	1.1688215	0.52901601	-0.19751285	1.0464935	0.49612283	0.094284748	1.1816476	0.5205786	-0.073370999	1.0239227	0.49088325	-0.029898006	0.96978595	0.89265028	-0.20418335	0.98186352	0.90002315	0.16833258	1.0469734	0.97773247	-0.14551278	1.0648847	0.98329041	0.090595645	0.88977083	1.0419554	-0.018959382	1.0739605	1.4214278	-0.2097052	1.071318	1.4506225	0.11834729	1.0090239	1.4879281	-0.046571731	0.91149586	1.085931	-0.24697197	0.89084803	1.1474757	0.23822675	1.0467851	0.85972947	-0.28986918	1.0204935	0.90925872	0.29523919
376	1.5	0.99903492	0.11419519	-0.13884762	1.0363237	0.038403324	-0.016384491	0.90218561	0.23083912	-0.16964081	0.89437214	0.066063373	0.028406489	0.93241333	0.22845033	-0.075355873	0.90729588	0.1113936	-0.060009511	0.82057144	0.23782774	-0.1206777	0.82014641	0.055391075	-0.01744886	1.1761695	0.53086182	-0.19725028	1.0482868	0.49642402	0.094641012	1.1889543	0.52266868	-0.073206453	1.025535	0.49123848	-0.029928911	0.97548458	0.89379851	-0.20475362	0.98628716	0.90089444	0.16782764	1.0522596	0.97901018	-0.14585733	1.0697478	0.98431605	0.09029576	0.89529053	1.0426515	-0.019710654	1.0780312	1.4227222	-0.20982103	1.0756684	1.451708	0.11827266	1.0132454	1.4890176	-0.046534283	0.91561699	1.0873942	-0.24729501	0.89589203	1.1478313	0.23804904	1.0495117	0.86071712	-0.29085439	1.0270182	0.91017185	0.29400811
377	1.504	1.0165916	0.11153596	-0.13966906	1.0363353	0.038401863	-0.016332457	0.91663406	0.22533354	-0.17014805	0.89459089	0.066601633	0.028400597	0.94656466	0.22361929	-0.075755816	0.90767756	0.11190853	-0.06005591	0.83497827	0.22993852	-0.12146024	0.82036123	0.056221074	-0.017492986	1.1830777	0.53271729	-0.19706326	1.050197	0.49674002	0.095082005	1.1959489	0.52456735	-0.073061892	1.027353	0.49148137	-0.029963754	0.98145365	0.89488749	-0.20531369	0.99070596	0.90171902	0.16732695	1.0575527	0.98022254	-0.14619895	1.0746147	0.98528938	0.090005239	0.90098453	1.0432469	-0.020554012	1.0821238	1.4239791	-0.20996485	1.0799912	1.4526856	0.11820691	1.0174788	1.4900488	-0.04649058	0.91969845	1.088814	-0.24758608	0.90090451	1.1480992	0.23783754	1.0522956	0.86166794	-0.2918451	1.0335265	0.9110477	0.29279158
378	1.508	1.0342622	0.10891242	-0.14050045	1.0363078	0.038476457	-0.016225056	0.93119899	0.21977713	-0.1706268	0.89481435	0.067134389	0.02839157	0.96096767	0.21870255	-0.076159827	0.90816898	0.11242149	-0.060039946	0.84960882	0.22198364	-0.12218274	0.82056672	0.057023458	-0.017559766	1.1896853	0.53452517	-0.19690334	1.0519857	0.49704247	0.09537831	1.20272	0.52627208	-0.072926916	1.0292688	0.49160709	-0.030008126	0.98755028	0.89590509	-0.20584696	0.99512474	0.90249027	0.16682937	1.0628434	0.98137265	-0.14652547	1.0794829	0.98620169	0.089728565	0.90657545	1.0438145	-0.021398385	1.0862451	1.4252138	-0.21015241	1.0843077	1.4535691	0.11814399	1.0217158	1.4910197	-0.046445408	0.92373874	1.0901746	-0.24785251	0.90587887	1.1482738	0.23758519	1.0551373	0.86258316	-0.29283496	1.0400231	0.9118745	0.29159488
379	1.512	1.0520779	0.10633882	-0.14136385	1.0363249	0.038620179	-0.016089644	0.94586172	0.21418791	-0.17105536	0.89504028	0.067656586	0.028389054	0.97578643	0.2136885	-0.076653077	0.90864788	0.11291579	-0.060004372	0.8643692	0.21399852	-0.12276708	0.82071373	0.057808499	-0.017697547	1.1961941	0.53618569	-0.1967251	1.0535536	0.49730296	0.095414695	1.2093245	0.52778387	-0.072794508	1.0311115	0.49168625	-0.030056805	0.9935132	0.89684012	-0.2063546	0.99954063	0.90320553	0.16633262	1.0681379	0.98245531	-0.14684236	1.084357	0.98704804	0.089461864	0.91189823	1.0443917	-0.022174461	1.0903828	1.4264149	-0.21036127	1.0886255	1.4543777	0.11807933	1.0259394	1.4919287	-0.046407802	0.92775581	1.0914722	-0.24810761	0.91083331	1.1483696	0.23730845	1.0580317	0.86346449	-0.29382107	1.0465108	0.91264373	0.29041807
380	1.516	1.0699909	0.10384061	-0.14227124	1.0364394	0.038795601	-0.015947853	0.96062662	0.20857785	-0.17142593	0.89525909	0.068163167	0.028402748	0.99092358	0.20861503	-0.077219101	0.90907919	0.11339206	-0.059977522	0.87923925	0.20598504	-0.12320219	0.8207738	0.058607002	-0.017921022	1.2027237	0.53760889	-0.19649168	1.0550472	0.49751074	0.09525474	1.2157917	0.52910099	-0.072656455	1.032813	0.49177634	-0.030099392	0.99922067	0.89769369	-0.206859	1.003951	0.90386542	0.16583865	1.0734498	0.98346371	-0.14716438	1.089238	0.98782988	0.089199463	0.91701536	1.0449617	-0.022883982	1.0945175	1.4275489	-0.21054254	1.0929409	1.4551214	0.11801589	1.0301463	1.4927764	-0.046381589	0.93177821	1.0927118	-0.24836166	0.91580388	1.1484131	0.23704126	1.0609776	0.8643113	-0.29480983	1.0529886	0.91335423	0.28925651
381	1.52	1.0879582	0.10143187	-0.14321587	1.036623	0.038952809	-0.015809251	0.97551971	0.20294381	-0.17175723	0.89546932	0.068653125	0.028424602	1.0061941	0.20352979	-0.077787804	0.90945221	0.11384758	-0.059971416	0.89423593	0.19794037	-0.12351325	0.82077143	0.059439797	-0.018180105	1.20932	0.53874571	-0.1961788	1.0567247	0.49765563	0.095004017	1.2221208	0.53022223	-0.072509782	1.0343748	0.49188582	-0.030141507	1.0047361	0.89847583	-0.20738411	1.0083528	0.904468	0.16535098	1.0787844	0.98439415	-0.14749937	1.0941225	0.98854836	0.088939303	0.92206622	1.0454878	-0.023567599	1.0986435	1.4285947	-0.21067355	1.097259	1.4558034	0.1179584	1.0343453	1.4935589	-0.046363445	0.93584481	1.0938884	-0.24863365	0.92080769	1.1484171	0.23680142	1.0639775	0.86512034	-0.29580992	1.0594545	0.9140084	0.28810841
382	1.524	1.1059767	0.099111059	-0.14417865	1.0367787	0.039045081	-0.015703863	0.99056662	0.19727374	-0.17207169	0.89566814	0.069128495	0.028436438	1.0215388	0.19845326	-0.078322046	0.90975843	0.11427427	-0.059980701	0.90940581	0.18986494	-0.1237261	0.82077642	0.060288925	-0.018390096	1.2160017	0.53958512	-0.19578271	1.0587409	0.49772714	0.094721241	1.2282994	0.53115305	-0.072359279	1.0358129	0.49200218	-0.030203036	1.0102112	0.899196	-0.20794919	1.0127445	0.90501163	0.16487082	1.0841329	0.98524594	-0.14783901	1.0990064	0.98920046	0.088681748	0.92712797	1.045944	-0.024252564	1.1027692	1.4295555	-0.21077169	1.1015822	1.4564236	0.11790478	1.0385445	1.494269	-0.046345203	0.93997535	1.0949919	-0.24893691	0.92583231	1.1483748	0.23657928	1.067029	0.86588737	-0.29682256	1.0659083	0.91460851	0.28697338
383	1.528	1.1240577	0.096875738	-0.14514283	1.036832	0.039054362	-0.015665233	1.0057733	0.19156668	-0.17237412	0.89584462	0.069589472	0.028432599	1.0369901	0.19339244	-0.078808484	0.91003047	0.11466327	-0.059971027	0.92485967	0.18173501	-0.12383586	0.82084269	0.061101272	-0.018520024	1.2226533	0.54018165	-0.19534105	1.0609806	0.49774463	0.094438441	1.2343215	0.53190466	-0.072210554	1.0371813	0.49211906	-0.030295102	1.0157962	0.89985698	-0.20856641	1.0171362	0.90550015	0.16439719	1.0894869	0.98601939	-0.14816969	1.1038892	0.9897841	0.088428484	0.93219825	1.0463179	-0.024938799	1.1069	1.4304448	-0.21086165	1.1058949	1.4569806	0.11785211	1.0427516	1.4949093	-0.046320286	0.94414705	1.0960229	-0.24925531	0.93086184	1.1482749	0.23635797	1.0701264	0.86660837	-0.29784171	1.0723558	0.91515503	0.28584714
384	1.532	1.1421908	0.094737112	-0.1461079	1.0368073	0.039015377	-0.015674925	1.0211177	0.18585239	-0.17265733	0.89599927	0.07003624	0.028416771	1.052578	0.18835019	-0.079226613	0.91037398	0.11501537	-0.059877894	0.94073775	0.17350205	-0.123765	0.82096878	0.061837589	-0.018604907	1.2289857	0.5406586	-0.19493953	1.0631512	0.49775633	0.094186328	1.2401842	0.53248799	-0.072065498	1.0385324	0.49224702	-0.030417947	1.0215638	0.90045666	-0.20922953	1.0215521	0.90594036	0.16392782	1.0948537	0.98671715	-0.14849253	1.1087765	0.99030034	0.088182306	0.93723221	1.046593	-0.025611346	1.1110324	1.4312726	-0.21095578	1.1101885	1.4574723	0.11780035	1.0469753	1.495489	-0.046291763	0.94832865	1.0969868	-0.24956184	0.93589412	1.1481124	0.23612978	1.0732717	0.86728133	-0.29886143	1.0788112	0.91564809	0.284723
